<svg 
  xmlns="http://www.w3.org/2000/svg" 
  viewBox="0 0 1652 1652" 
>
  <path 
    style="fill:#ff5722"
    d="M383.9 379.3c-20.1 0-36.4-16.3-36.4-36.4 0-20.1 16.3-36.4 36.4-36.4s36.4 16.3 36.4 36.4c0 20.1-16.3 36.4-36.4 36.4m-110.6 0c-20.1 0-36.4-16.3-36.4-36.4 0-20.1 16.3-36.4 36.4-36.4s36.4 16.3 36.4 36.4c0 20.1-16.3 36.4-36.4 36.4m-110.6 0c-20.1 0-36.4-16.3-36.4-36.4 0-20.1 16.3-36.4 36.4-36.4s36.4 16.3 36.4 36.4c.1 20.1-16.2 36.4-36.4 36.4M526.2 327h-30.8c-5.1 0-9.3-4.1-9.3-9.3s4.2-9.3 9.3-9.3h63.9v-31.8h-63.9c-22.7 0-41 18.4-41 41.1 0 22.7 18.4 41 41 41h30.8c5.1 0 9.3 4.2 9.3 9.3 0 5.1-4.1 9.3-9.3 9.3h-83.4c5.9-10.1 9.3-21.9 9.3-34.4 0-37.7-30.5-68.2-68.2-68.2-20.5 0-38.8 9-51.3 23.3v-56.9h-31.8v39.4c-8.4-3.7-17.7-5.8-27.5-5.8-22.8 0-42.9 11.2-55.3 28.3-12.4-17.1-32.5-28.3-55.3-28.3-37.7 0-68.2 30.5-68.2 68.2 0 12.6 3.4 24.3 9.3 34.4h-7.4c-13.3 0-24.2-10.9-24.2-24.2v-44.6h25.7v-31.8H72.2v-35.6H40.5v35.6H26.7v31.8h13.7v44.6c0 30.9 25.1 56 56 56h20.9v-15.3c12.1 10.8 27.9 17.3 45.4 17.3 22.8 0 42.9-11.2 55.3-28.3 12.4 17.1 32.5 28.3 55.3 28.3 22.8 0 42.9-11.2 55.3-28.3 12.4 17.1 32.5 28.3 55.3 28.3 16.2 0 31.1-5.7 42.8-15.1v13.2h99.5c22.7 0 41-18.4 41-41.1 0-22.8-18.3-41.1-41-41.1" 
  />
</svg>